<svg xmlns="http://www.w3.org/2000/svg" xmlns:xlink="http://www.w3.org/1999/xlink" viewBox="0 0 216 216"><defs><style>.cls-1,.cls-11,.cls-12,.cls-13,.cls-15,.cls-3{fill:#fff;}.cls-1,.cls-10,.cls-11,.cls-12,.cls-13,.cls-14,.cls-15,.cls-5,.cls-7,.cls-8{stroke:#231f20;}.cls-1,.cls-11,.cls-14,.cls-16,.cls-17,.cls-18,.cls-5,.cls-7,.cls-8{stroke-miterlimit:10;}.cls-1,.cls-10,.cls-13,.cls-15,.cls-5,.cls-8{stroke-width:3px;}.cls-10,.cls-14,.cls-2,.cls-5,.cls-7,.cls-8{fill:none;}.cls-4{clip-path:url(#clip-path);}.cls-15,.cls-5,.cls-7{stroke-linecap:round;}.cls-6{fill:#231f20;}.cls-14,.cls-16,.cls-17,.cls-18,.cls-7{stroke-width:1.5px;}.cls-9{clip-path:url(#clip-path-2);}.cls-10,.cls-12,.cls-13,.cls-15{stroke-linejoin:round;}.cls-11{stroke-width:5.31px;}.cls-12{stroke-width:6.52px;}.cls-16{fill:#d86259;stroke:#ce3a2c;}.cls-17{fill:#a977b4;stroke:#9157a3;}.cls-18{fill:#5dae49;stroke:#349a46;}</style><clipPath id="clip-path"><polygon class="cls-1" points="108 9.57 67.52 18.17 34.04 42.49 13.35 78.33 9.03 119.49 21.81 158.85 49.5 189.6 87.31 206.43 128.69 206.43 166.5 189.6 194.19 158.85 206.97 119.49 202.65 78.33 181.96 42.49 148.48 18.17 108 9.57"/></clipPath><clipPath id="clip-path-2"><circle class="cls-2" cx="108.07" cy="108.12" r="72.25"/></clipPath></defs><title>Gas Models</title><g id="Layer_5" data-name="Layer 5"><polygon class="cls-3" points="108 9.57 67.52 18.17 34.04 42.49 13.35 78.33 9.03 119.49 21.81 158.85 49.5 189.6 87.31 206.43 128.69 206.43 166.5 189.6 194.19 158.85 206.97 119.49 202.65 78.33 181.96 42.49 148.48 18.17 108 9.57"/><g class="cls-4"><line class="cls-5" x1="108" y1="-0.35" x2="108" y2="27.26"/><line class="cls-5" x1="85.47" y1="2.02" x2="91.21" y2="29.03"/><line class="cls-5" x1="63.93" y1="9.02" x2="75.16" y2="34.24"/><line class="cls-5" x1="44.31" y1="20.34" x2="60.54" y2="42.68"/><line class="cls-5" x1="27.48" y1="35.5" x2="48" y2="53.98"/><line class="cls-5" x1="14.17" y1="53.83" x2="38.08" y2="67.63"/><line class="cls-5" x1="4.95" y1="74.52" x2="31.21" y2="83.05"/><line class="cls-5" x1="0.24" y1="96.67" x2="27.7" y2="99.56"/><line class="cls-5" x1="0.24" y1="119.33" x2="27.7" y2="116.44"/><line class="cls-5" x1="4.95" y1="141.48" x2="31.21" y2="132.95"/><line class="cls-5" x1="14.17" y1="162.17" x2="38.08" y2="148.37"/><line class="cls-5" x1="27.48" y1="180.5" x2="48" y2="162.02"/><line class="cls-5" x1="44.31" y1="195.66" x2="60.54" y2="173.32"/><line class="cls-5" x1="63.93" y1="206.98" x2="75.16" y2="181.76"/><line class="cls-5" x1="85.47" y1="213.98" x2="91.21" y2="186.97"/><line class="cls-5" x1="108" y1="216.35" x2="108" y2="188.74"/><line class="cls-5" x1="130.53" y1="213.98" x2="124.79" y2="186.97"/><line class="cls-5" x1="152.07" y1="206.98" x2="140.84" y2="181.76"/><line class="cls-5" x1="171.69" y1="195.66" x2="155.46" y2="173.32"/><line class="cls-5" x1="188.52" y1="180.5" x2="168" y2="162.02"/><line class="cls-5" x1="201.83" y1="162.17" x2="177.92" y2="148.37"/><line class="cls-5" x1="211.05" y1="141.48" x2="184.79" y2="132.95"/><line class="cls-5" x1="215.76" y1="119.33" x2="188.3" y2="116.44"/><line class="cls-5" x1="215.76" y1="96.67" x2="188.3" y2="99.56"/><line class="cls-5" x1="211.05" y1="74.52" x2="184.79" y2="83.05"/><line class="cls-5" x1="201.83" y1="53.83" x2="177.92" y2="67.63"/><line class="cls-5" x1="188.52" y1="35.5" x2="168" y2="53.98"/><line class="cls-5" x1="171.69" y1="20.34" x2="155.46" y2="42.68"/><line class="cls-5" x1="152.07" y1="9.02" x2="140.84" y2="34.24"/><line class="cls-5" x1="130.53" y1="2.02" x2="124.79" y2="29.03"/><circle class="cls-6" cx="108" cy="108" r="1.68"/><line class="cls-7" x1="96.94" y1="0.22" x2="99.76" y2="27.68"/><line class="cls-7" x1="74.78" y1="4.87" x2="83.24" y2="31.15"/><line class="cls-7" x1="54.06" y1="14.03" x2="67.81" y2="37.98"/><line class="cls-7" x1="35.7" y1="27.3" x2="54.13" y2="47.87"/><line class="cls-7" x1="20.5" y1="44.1" x2="42.8" y2="60.38"/><line class="cls-7" x1="9.13" y1="63.68" x2="34.32" y2="74.98"/><line class="cls-7" x1="2.07" y1="85.21" x2="29.07" y2="91.02"/><line class="cls-7" x1="-0.35" y1="107.73" x2="27.26" y2="107.8"/><line class="cls-7" x1="1.96" y1="130.26" x2="28.98" y2="124.59"/><line class="cls-7" x1="8.91" y1="151.82" x2="34.16" y2="140.66"/><line class="cls-7" x1="20.19" y1="171.47" x2="42.56" y2="155.29"/><line class="cls-7" x1="35.3" y1="188.34" x2="53.83" y2="167.87"/><line class="cls-7" x1="53.59" y1="201.7" x2="67.46" y2="177.82"/><line class="cls-7" x1="74.26" y1="210.96" x2="82.86" y2="184.72"/><line class="cls-7" x1="96.41" y1="215.73" x2="99.36" y2="188.27"/><line class="cls-7" x1="119.06" y1="215.78" x2="116.24" y2="188.32"/><line class="cls-7" x1="141.22" y1="211.13" x2="132.76" y2="184.85"/><line class="cls-7" x1="161.94" y1="201.97" x2="148.19" y2="178.02"/><line class="cls-7" x1="180.3" y1="188.7" x2="161.87" y2="168.13"/><line class="cls-7" x1="195.5" y1="171.9" x2="173.2" y2="155.62"/><line class="cls-7" x1="206.87" y1="152.32" x2="181.68" y2="141.02"/><line class="cls-7" x1="213.93" y1="130.79" x2="186.93" y2="124.98"/><line class="cls-7" x1="216.35" y1="108.27" x2="188.74" y2="108.2"/><line class="cls-7" x1="214.04" y1="85.74" x2="187.02" y2="91.41"/><line class="cls-7" x1="207.09" y1="64.18" x2="181.84" y2="75.34"/><line class="cls-7" x1="195.81" y1="44.53" x2="173.44" y2="60.71"/><line class="cls-7" x1="180.7" y1="27.66" x2="162.17" y2="48.13"/><line class="cls-7" x1="162.41" y1="14.3" x2="148.54" y2="38.18"/><line class="cls-7" x1="141.74" y1="5.04" x2="133.14" y2="31.28"/><line class="cls-7" x1="119.59" y1="0.27" x2="116.64" y2="27.73"/><circle class="cls-6" cx="108" cy="108" r="1.68"/></g><polygon class="cls-8" points="108 9.57 67.52 18.17 34.04 42.49 13.35 78.33 9.03 119.49 21.81 158.85 49.5 189.6 87.31 206.43 128.69 206.43 166.5 189.6 194.19 158.85 206.97 119.49 202.65 78.33 181.96 42.49 148.48 18.17 108 9.57"/><circle class="cls-1" cx="108.33" cy="108.58" r="90.75"/><path class="cls-6" d="M68.13,33.29a3.76,3.76,0,0,1,3.89,0l-1.08,1.63a2,2,0,0,0-1.94,0A2.32,2.32,0,0,0,71.22,39a2.53,2.53,0,0,0,1.1-1.14L72,37.22l-1.61.88-.83-1.51L73,34.74l1.51,2.75a4.66,4.66,0,0,1-2.36,3.06,4.14,4.14,0,1,1-4-7.26Z"/><path class="cls-6" d="M81.33,34.86l-3.09,1.22.07,1.28-2.09.83-.15-8.55,2.41-1L84.24,35l-2.08.82Zm-3.23-.59,2.09-.83-2.25-2.61Z"/><path class="cls-6" d="M85.54,31.88a3.62,3.62,0,0,0,2.74.36c.69-.18,1-.59.93-1s-.67-.48-1.54-.43c-1.34.09-3.21.24-3.7-1.59-.35-1.3.45-2.72,2.43-3.25a4.88,4.88,0,0,1,3.43.23L89.12,28a3.66,3.66,0,0,0-2.39-.21c-.66.17-.85.51-.76.85s.63.41,1.53.34c1.35-.07,3.21-.17,3.68,1.58.41,1.55-.46,2.89-2.53,3.45a4.86,4.86,0,0,1-3.76-.31Z"/><path class="cls-6" d="M104.36,25.9l-1.6,5.55-.91.07-2.43-5.23.42,5.39-2.06.16-.63-8,2.86-.22L102,28l1.32-4.66,2.86-.22.63,8-2.06.17Z"/><path class="cls-6" d="M113.56,23.26A4.14,4.14,0,1,1,109,27.13,4,4,0,0,1,113.56,23.26Zm-.11,1.82a2.16,2.16,0,0,0-2.32,2.18,2.18,2.18,0,1,0,4.35.26A2.15,2.15,0,0,0,113.45,25.08Z"/><path class="cls-6" d="M120.82,24.06l3.3.63c2.48.47,4,2.29,3.51,4.73s-2.53,3.6-5,3.13l-3.31-.63ZM123,30.78A2.12,2.12,0,0,0,125.55,29a2,2,0,0,0-1.75-2.56l-1.29-.25-.82,4.33Z"/><path class="cls-6" d="M131.22,26.29l5.6,1.76-.53,1.66-3.62-1.15-.4,1.27L135.81,31l-.52,1.67-3.55-1.11-.43,1.37L134.94,34l-.53,1.66-5.59-1.76Z"/><path class="cls-6" d="M139.63,29.13l1.89.81-2.45,5.7,3,1.27-.71,1.65-4.84-2.08Z"/><path class="cls-6" d="M144.91,37.38a3.58,3.58,0,0,0,1.72,2.16c.62.35,1.14.3,1.33,0s-.15-.81-.8-1.38c-1-.87-2.48-2.06-1.55-3.72.65-1.18,2.21-1.64,4-.64a4.88,4.88,0,0,1,2.29,2.56l-1.7.74a3.7,3.7,0,0,0-1.57-1.82c-.6-.33-1-.22-1.13.08s.16.73.85,1.31c1,.89,2.42,2.11,1.54,3.69-.78,1.41-2.34,1.76-4.22.72a4.92,4.92,0,0,1-2.48-2.84Z"/><circle class="cls-2" cx="108.07" cy="108.12" r="72.25"/><circle class="cls-2" cx="108.07" cy="108.12" r="72.25"/><g class="cls-9"><polygon class="cls-10" points="123.74 207 93.12 179.88 94.83 111.57 123.74 111.57 123.74 207"/><ellipse class="cls-11" cx="109.47" cy="113.14" rx="13.49" ry="8.74"/><path class="cls-12" d="M125.47,128.56V158h-.15c-.51,5.7-7.85,10.18-16.75,10.11S92.73,163.62,92.24,158H92.1V128.56h.11c0,5.87,7.27,10.66,16.36,10.74s16.66-4.67,16.78-10.6v-.14Z"/><path class="cls-13" d="M131.17,85.66c.91,17.11-21.71,24.43-21.71,24.43S87.74,102.73,87.74,85.6c0-5.52,4.22-15.29,4.22-15.29s4,9,7.91,8.85c2.26-.06,5.45-3.17,7.59-9.76,2.57-7.93,2.43-19.92,5.81-25,0,0-.38,7.81,5.44,19C122.36,70.31,130.57,74.17,131.17,85.66Z"/><path class="cls-6" d="M119.25,94.23c.41,7.83-9.94,11.19-9.94,11.19s-9.94-3.37-9.94-11.22c0-2.52,1.93-7,1.93-7s1.8,4.1,3.62,4.05c1,0,2.49-1.45,3.47-4.47,1.18-3.63,1.12-9.12,2.66-11.46,0,0-.17,3.57,2.49,8.68C115.21,87.21,119,89,119.25,94.23Z"/><polygon class="cls-10" points="54.18 208.42 77.14 188.08 75.86 136.85 54.18 136.85 54.18 208.42"/><ellipse class="cls-11" cx="64.88" cy="138.02" rx="10.11" ry="6.55"/><path class="cls-12" d="M52.88,149.59V171.7H53c.39,4.27,5.89,7.63,12.57,7.58s11.88-3.4,12.25-7.58h.1V149.59h-.08c0,4.4-5.45,8-12.27,8s-12.5-3.5-12.59-7.95v-.1Z"/><path class="cls-13" d="M48.6,117.41c-.68,12.83,16.29,18.33,16.29,18.33s16.29-5.53,16.29-18.38c0-4.13-3.16-11.46-3.16-11.46s-3,6.72-5.94,6.64c-1.69-.05-4.09-2.38-5.69-7.33C64.46,99.27,64.56,90.28,62,86.44c0,0,.28,5.85-4.08,14.21C55.22,105.9,49.06,108.79,48.6,117.41Z"/><path class="cls-6" d="M57.55,123.84c-.31,5.87,7.45,8.39,7.45,8.39s7.46-2.53,7.46-8.41A18.52,18.52,0,0,0,71,118.57s-1.35,3.08-2.71,3c-.78,0-1.88-1.09-2.61-3.35-.88-2.72-.84-6.84-2-8.6a14.21,14.21,0,0,1-1.87,6.51C60.58,118.57,57.76,119.9,57.55,123.84Z"/><polygon class="cls-10" points="164.43 196.91 141.47 176.57 142.75 125.34 164.43 125.34 164.43 196.91"/><ellipse class="cls-11" cx="153.73" cy="126.52" rx="10.11" ry="6.55"/><path class="cls-12" d="M165.73,138.08v22.11h-.12c-.38,4.28-5.88,7.64-12.56,7.58s-11.88-3.39-12.25-7.58h-.1V138.08h.08c0,4.4,5.45,8,12.27,8.06s12.5-3.51,12.59-7.95v-.11Z"/><path class="cls-13" d="M170,105.9c.68,12.83-16.28,18.33-16.28,18.33s-16.29-5.52-16.29-18.37c0-4.14,3.16-11.47,3.16-11.47s3,6.73,5.94,6.64c1.69,0,4.09-2.38,5.69-7.32,1.93-5.95,1.82-14.94,4.36-18.78,0,0-.29,5.85,4.08,14.22C163.39,94.39,169.55,97.29,170,105.9Z"/><path class="cls-6" d="M161.06,112.33c.31,5.88-7.46,8.39-7.46,8.39s-7.45-2.53-7.45-8.41a18.52,18.52,0,0,1,1.45-5.25s1.35,3.08,2.71,3c.78,0,1.87-1.09,2.61-3.35.88-2.72.83-6.84,2-8.59a14,14,0,0,0,1.87,6.5C158,107.06,160.85,108.39,161.06,112.33Z"/></g><path class="cls-6" d="M45.57,153.74l1,1.3-3.91,3,1.54,2-1.13.86-2.53-3.33Z"/><path class="cls-6" d="M47.69,164.79l-1.76-2-.93.39-1.19-1.32,6.31-2.45L51.49,161l-3.12,6-1.18-1.32Zm-.45-2.56,1.18,1.32,1.32-2.38Z"/><path class="cls-6" d="M53.32,166.43l-2.6,2.81-1.2-1.11,4.29-4.65,1.24,1.15L54.47,169l2.47-2.67,1.21,1.12-4.3,4.64-1.16-1.07Z"/><path class="cls-6" d="M59.48,168.57l1.3,1-3,3.87,2,1.57-.87,1.12-3.31-2.57Z"/><path class="cls-6" d="M163.93,169.92l-2,1.74.39.93L161,173.77l-2.38-6.34,1.55-1.35,6,3.18-1.34,1.17Zm-2.57.42,1.34-1.17-2.36-1.35Z"/><path class="cls-6" d="M165.64,164.31l2.78,2.62-1.12,1.19-4.6-4.34,1.15-1.22,4.42.63-2.65-2.5,1.13-1.2,4.6,4.35L170.27,165Z"/><path class="cls-6" d="M171.4,160.47a2.88,2.88,0,0,0,1.91-1.08c.35-.44.38-.85.14-1s-.65,0-1.18.45c-.81.69-1.93,1.68-3.1.75-.84-.66-1-1.94,0-3.21a3.85,3.85,0,0,1,2.29-1.48l.36,1.43a2.88,2.88,0,0,0-1.62,1c-.34.43-.3.73-.08.9s.59,0,1.13-.5c.82-.69,2-1.64,3.08-.75s1.08,2,0,3.39a3.87,3.87,0,0,1-2.53,1.58Z"/><path class="cls-6" d="M171.71,153.12l.93-1.35,5.2,3.6-.93,1.35Z"/><path class="cls-14" d="M36.7,155.31a85.5,85.5,0,0,1,24-117.93"/><path class="cls-14" d="M158,39a85.51,85.51,0,0,1,23.17,114"/><path class="cls-14" d="M40.4,153.15A81.21,81.21,0,0,1,63.2,40.85"/><path class="cls-14" d="M155.62,42.56a81.23,81.23,0,0,1,21.86,108.2"/><path class="cls-14" d="M43.85,151A77.16,77.16,0,0,1,65.57,44.15"/><path class="cls-14" d="M153,45.64a77.17,77.17,0,0,1,21,103.15"/><path class="cls-14" d="M160.54,176.24a85.5,85.5,0,0,1-99.72,3.39"/><path class="cls-14" d="M157.87,172.9a81.24,81.24,0,0,1-94.92,3"/><path class="cls-14" d="M43.71,150.87a77.26,77.26,0,0,1-7.29-70.52"/><path class="cls-14" d="M43.77,151l-.06-.09"/><path class="cls-14" d="M155.5,169.52a77.19,77.19,0,0,1-90.34,3.06"/><path class="cls-14" d="M180,80.37a77.24,77.24,0,0,1-6,68.52"/><circle class="cls-8" cx="108.07" cy="108.12" r="72.25"/><path class="cls-15" d="M105.74,180.12a72.29,72.29,0,0,1-11.21-1.32c-2.37,9.68-5.07,20.7-6.73,27.43h41.31c-.83-3.36-1.91-7.78-3.09-12.57s-2.45-10-3.63-14.83A72.2,72.2,0,0,1,105.74,180.12Z"/><circle class="cls-16" cx="103.32" cy="197.45" r="3.75"/><circle class="cls-17" cx="113.59" cy="197.45" r="3.75"/><circle class="cls-18" cx="108.45" cy="188.87" r="3.75"/></g></svg>